<svg width="75" height="74" viewBox="0 0 75 74" fill="none" xmlns="http://www.w3.org/2000/svg">
<g clip-path="url(#clip0)">
<mask id="mask0" mask-type="alpha" maskUnits="userSpaceOnUse" x="0" y="14" width="39" height="21">
<path d="M0 14.6875H38.4362V34.2302H0V14.6875Z" fill="white"/>
</mask>
<g mask="url(#mask0)">
<path fill-rule="evenodd" clip-rule="evenodd" d="M30.7888 25.8878L25.1741 21.6775C27.3356 21.0507 29.4725 20.342 31.5802 19.5529L30.7888 25.8878ZM11.9353 30.6128L7.58664 24.8133C10.0302 24.6376 12.4651 24.358 14.8849 23.9753L11.9366 30.6128H11.9353ZM1.22069 25.0822C2.36767 25.0822 3.51724 25.0331 4.66422 24.9865L11.2306 33.7408C11.3578 33.9115 11.5275 34.0459 11.7228 34.1306C11.918 34.2153 12.1321 34.2474 12.3437 34.2236C12.5552 34.1997 12.7568 34.1209 12.9284 33.9949C13.0999 33.8689 13.2355 33.7002 13.3216 33.5055L17.7957 23.4361C19.2578 23.1509 20.7122 22.8275 22.1573 22.4663L31.006 29.1025C31.1769 29.2315 31.3788 29.313 31.5914 29.3389C31.8039 29.3648 32.0195 29.3341 32.2164 29.2499C32.4132 29.1652 32.5844 29.0304 32.7129 28.8589C32.8413 28.6873 32.9225 28.4851 32.9483 28.2723L34.169 18.5482C35.3633 18.067 36.5464 17.5583 37.7172 17.0223C38.0125 16.8891 38.2428 16.644 38.3574 16.341C38.472 16.038 38.4615 15.7019 38.3282 15.4066C38.195 15.1113 37.9499 14.881 37.6469 14.7665C37.3439 14.6519 37.0078 14.6624 36.7125 14.7956L36.6892 14.8072C25.5707 19.9489 13.4705 22.6213 1.22069 22.6409C1.06039 22.6409 0.901653 22.6724 0.753552 22.7338C0.605451 22.7951 0.470883 22.885 0.357532 22.9984C0.24418 23.1117 0.154265 23.2463 0.0929195 23.3944C0.0315741 23.5425 0 23.7012 0 23.8615C0 24.0218 0.0315741 24.1806 0.0929195 24.3287C0.154265 24.4768 0.24418 24.6113 0.357532 24.7247C0.470883 24.838 0.605451 24.928 0.753552 24.9893C0.901653 25.0507 1.06039 25.0822 1.22069 25.0822Z" fill="#020303"/>
</g>
<mask id="mask1" mask-type="alpha" maskUnits="userSpaceOnUse" x="0" y="37" width="36" height="37">
<path d="M0 37.3867H35.9056V73.2936H0V37.3867Z" fill="white"/>
</mask>
<g mask="url(#mask1)">
<path fill-rule="evenodd" clip-rule="evenodd" d="M26.8545 40.8393L32.4537 46.4384L27.5722 51.3199H16.5045C16.6555 51.0843 16.8306 50.865 17.0269 50.6656L26.8545 40.8393ZM22.6261 56.266C22.0919 56.8022 21.4146 57.1734 20.6752 57.3352C19.9358 57.497 19.1655 57.4426 18.4561 57.1785C17.7468 56.9144 17.1284 56.4518 16.6748 55.8459C16.2212 55.2399 15.9516 54.5163 15.8981 53.7613H25.1282L22.6248 56.266H22.6261ZM7.3222 69.1259L4.16573 65.9708H7.32349V69.1259H7.3222ZM1.21875 63.5268C0.977796 63.528 0.742571 63.6004 0.542589 63.7348C0.342607 63.8692 0.186776 64.0597 0.0946494 64.2824C0.00252274 64.505 -0.0217963 64.7499 0.0247437 64.9863C0.0712837 65.2228 0.18661 65.4402 0.356251 65.6113L7.6791 72.9354C7.8495 73.107 8.06704 73.224 8.30409 73.2716C8.54114 73.3192 8.78699 73.2952 9.0104 73.2028C9.23382 73.1103 9.4247 72.9536 9.55881 72.7524C9.69292 72.5512 9.7642 72.3147 9.76358 72.0729V65.2531L16.2498 58.7669C17.48 59.5981 18.9612 59.975 20.439 59.833C21.9169 59.6909 23.2992 59.0388 24.3485 57.9884L28.9351 53.4031L35.905 46.4371L26.8532 37.3867L15.2968 48.9406C14.2478 49.9917 13.5971 51.3749 13.456 52.8531C13.3149 54.3314 13.6923 55.8126 14.5235 57.0432L8.03728 63.5268H1.22263H1.21875Z" fill="#020303"/>
</g>
<mask id="mask2" mask-type="alpha" maskUnits="userSpaceOnUse" x="38" y="37" width="37" height="37">
<path d="M38.5579 37.3867H74.4648V73.2936H38.5579V37.3867Z" fill="white"/>
</mask>
<g mask="url(#mask2)">
<path fill-rule="evenodd" clip-rule="evenodd" d="M67.1406 69.1259V65.9708H70.2958L67.1406 69.1259ZM51.838 56.2647L48.1139 52.5406H58.4717C58.6744 53.3781 58.5978 54.2589 58.2536 55.0488C57.9094 55.8387 57.3164 56.4945 56.5651 56.9162C55.8137 57.338 54.945 57.5026 54.0914 57.385C53.2378 57.2674 52.4461 56.874 51.8367 56.2647H51.838ZM47.6096 40.8393L56.8682 50.0992H45.6725L42.0104 46.4371L47.6096 40.8393ZM74.3717 64.2807C74.2795 64.0575 74.1231 63.8667 73.9223 63.7325C73.7216 63.5983 73.4855 63.5267 73.2441 63.5268H66.4242L59.938 57.0432C60.7697 55.8125 61.147 54.3308 61.0052 52.8523C60.8634 51.3737 60.2113 49.9907 59.1609 48.9406L47.6096 37.3867L38.5579 46.4384L44.3031 52.1824L50.1092 57.9884C51.159 59.0393 52.542 59.6918 54.0205 59.8338C55.4991 59.9759 56.981 59.5986 58.2117 58.7669L64.6979 65.2531V72.0729C64.6983 72.3144 64.7702 72.5504 64.9046 72.751C65.039 72.9517 65.2298 73.108 65.453 73.2003C65.6761 73.2926 65.9216 73.3167 66.1585 73.2695C66.3953 73.2224 66.6129 73.1061 66.7837 72.9354L74.1079 65.6113C74.2782 65.4403 74.3941 65.2227 74.4411 64.9859C74.488 64.7491 74.4639 64.5038 74.3717 64.2807Z" fill="#020303"/>
</g>
<mask id="mask3" mask-type="alpha" maskUnits="userSpaceOnUse" x="17" y="0" width="57" height="24">
<path d="M17.0896 0H73.2439V23.2461H17.0896V0Z" fill="white"/>
</mask>
<g mask="url(#mask3)">
<path fill-rule="evenodd" clip-rule="evenodd" d="M63.4783 19.7198L59.5718 13.4767H67.3847L63.4783 19.7198ZM45.5843 18.4396L43.2632 12.256C45.5197 12.6737 47.7955 12.984 50.0908 13.187L45.5843 18.4383V18.4396ZM25.6343 13.4754V6.59479C27.5641 7.49975 29.5323 8.32035 31.5334 9.05427L25.6343 13.4767V13.4754ZM72.0231 13.4754C72.3469 13.4754 72.6573 13.3468 72.8863 13.1179C73.1152 12.8889 73.2438 12.5785 73.2438 12.2547C73.2438 11.931 73.1152 11.6205 72.8863 11.3915C72.6573 11.1626 72.3469 11.034 72.0231 11.034H56.5731C43.2634 11.039 30.2239 7.27867 18.9606 0.187463C18.6865 0.024352 18.3594 -0.0250987 18.0493 0.0496742C17.7392 0.124447 17.4706 0.317515 17.301 0.587638C17.1313 0.857761 17.074 1.18352 17.1413 1.49534C17.2085 1.80715 17.3951 2.0803 17.661 2.25643C19.4594 3.38288 21.3055 4.43127 23.1942 5.39867V15.9194C23.1946 16.1458 23.2579 16.3677 23.3772 16.5603C23.4965 16.7528 23.667 16.9083 23.8696 17.0095C24.0722 17.1107 24.299 17.1535 24.5245 17.1332C24.7501 17.1128 24.9656 17.0301 25.1468 16.8944L34.3304 10.006C36.3396 10.6484 38.3761 11.2024 40.4339 11.6663L44.0197 21.2301C44.0944 21.4292 44.2197 21.6053 44.3833 21.7412C44.5468 21.877 44.7429 21.9679 44.9523 22.0048C45.1617 22.0418 45.3771 22.0235 45.5773 21.9518C45.7774 21.8801 45.9555 21.7575 46.0938 21.5961L53.1283 13.3875C54.2766 13.4405 55.4235 13.478 56.5744 13.478H56.6972L62.4412 22.6694C62.5507 22.8461 62.7034 22.9919 62.885 23.093C63.0666 23.1941 63.2711 23.2472 63.4789 23.2472C63.6868 23.2472 63.8912 23.1941 64.0728 23.093C64.2544 22.9919 64.4072 22.8461 64.5166 22.6694L70.258 13.4767H72.0231V13.4754Z" fill="#020303"/>
</g>
<path fill-rule="evenodd" clip-rule="evenodd" d="M37.8427 32.0311C37.8427 31.8708 37.8111 31.712 37.7498 31.5639C37.6884 31.4158 37.5985 31.2813 37.4852 31.1679C37.3718 31.0546 37.2372 30.9647 37.0891 30.9033C36.941 30.842 36.7823 30.8104 36.622 30.8104C36.4617 30.8104 36.303 30.842 36.1549 30.9033C36.0068 30.9647 35.8722 31.0546 35.7588 31.1679C35.6455 31.2813 35.5556 31.4158 35.4942 31.5639C35.4329 31.712 35.4013 31.8708 35.4013 32.0311V35.6944C35.4013 36.0182 35.5299 36.3287 35.7588 36.5576C35.9878 36.7865 36.2983 36.9151 36.622 36.9151C36.9458 36.9151 37.2562 36.7865 37.4852 36.5576C37.7141 36.3287 37.8427 36.0182 37.8427 35.6944V32.0311ZM32.9612 37.8914C33.1755 37.8916 33.3861 37.8353 33.5717 37.7281C33.7573 37.6209 33.9113 37.4667 34.0182 37.281C34.1251 37.0952 34.1811 36.8846 34.1806 36.6703C34.18 36.456 34.1229 36.2456 34.0151 36.0604L32.1841 32.8871C32.1049 32.7479 31.999 32.6256 31.8725 32.5273C31.746 32.4289 31.6014 32.3565 31.447 32.314C31.2925 32.2716 31.1312 32.26 30.9722 32.2799C30.8132 32.2998 30.6597 32.3508 30.5205 32.43C30.3813 32.5092 30.259 32.6151 30.1606 32.7416C30.0623 32.868 29.9899 33.0126 29.9474 33.1671C29.905 33.3216 29.8934 33.4829 29.9133 33.6419C29.9332 33.8008 29.9842 33.9543 30.0634 34.0936L30.0699 34.1065L31.9009 37.2811C32.0083 37.4671 32.1629 37.6215 32.3491 37.7287C32.5352 37.8358 32.7464 37.892 32.9612 37.8914ZM31.9009 53.1513L30.0711 56.3246C29.9235 56.603 29.889 56.9276 29.975 57.2308C30.061 57.5339 30.2607 57.7921 30.5326 57.9515C30.8044 58.1109 31.1273 58.1591 31.4339 58.086C31.7404 58.013 32.0069 57.8244 32.1776 57.5595L32.1867 57.5453L34.0177 54.372C34.1796 54.0915 34.2234 53.7581 34.1395 53.4453C34.0556 53.1325 33.8508 52.8658 33.5703 52.7039C33.2897 52.5421 32.9564 52.4983 32.6436 52.5822C32.3307 52.6661 32.0641 52.8708 31.9022 53.1513H31.9009ZM36.622 53.5173C36.2983 53.5173 35.9878 53.6459 35.7588 53.8748C35.5299 54.1037 35.4013 54.4142 35.4013 54.738V58.4C35.4116 58.7167 35.5447 59.017 35.7724 59.2374C36 59.4578 36.3045 59.581 36.6214 59.581C36.9382 59.581 37.2427 59.4578 37.4704 59.2374C37.698 59.017 37.8311 58.7167 37.8414 58.4V54.738C37.8416 54.5777 37.8102 54.419 37.749 54.2709C37.6877 54.1228 37.598 53.9883 37.4847 53.8749C37.3715 53.7615 37.237 53.6716 37.0889 53.6102C36.9409 53.5489 36.7822 53.5173 36.622 53.5173ZM41.3405 53.1513C41.261 53.0113 41.1546 52.8884 41.0273 52.7897C40.9001 52.691 40.7546 52.6184 40.5992 52.5761C40.4438 52.5339 40.2816 52.5228 40.1219 52.5436C39.9622 52.5643 39.8082 52.6164 39.6687 52.697C39.5292 52.7775 39.4071 52.8848 39.3093 53.0128C39.2115 53.1407 39.1399 53.2867 39.0988 53.4424C39.0577 53.5981 39.0478 53.7604 39.0697 53.92C39.0916 54.0795 39.1448 54.2331 39.2263 54.372L41.0586 57.5453C41.2205 57.8257 41.4871 58.0302 41.7998 58.114C42.1126 58.1978 42.4457 58.1539 42.7261 57.9921C43.0065 57.8302 43.211 57.5636 43.2948 57.2509C43.3786 56.9382 43.3347 56.605 43.1729 56.3246L41.3418 53.1513H41.3405ZM41.0586 32.8871L39.2276 36.0604C39.1475 36.1992 39.0954 36.3525 39.0745 36.5114C39.0536 36.6703 39.0642 36.8318 39.1057 36.9866C39.1471 37.1415 39.2187 37.2866 39.3163 37.4138C39.4139 37.541 39.5356 37.6477 39.6744 37.7278C39.8132 37.808 39.9664 37.86 40.1254 37.8809C40.2843 37.9019 40.4458 37.8913 40.6006 37.8498C40.7555 37.8083 40.9006 37.7367 41.0278 37.6392C41.155 37.5416 41.2617 37.4199 41.3418 37.2811L43.1729 34.1078C43.3253 33.8289 43.363 33.5017 43.2782 33.1955C43.1933 32.8892 42.9925 32.6281 42.7183 32.4674C42.4441 32.3068 42.1181 32.2593 41.8095 32.335C41.5009 32.4107 41.2339 32.6036 41.0651 32.8729L41.0586 32.8858V32.8871ZM52.4923 68.41C52.1683 68.41 51.8577 68.2813 51.6286 68.0522C51.3996 67.8232 51.2709 67.5125 51.2709 67.1886C51.2709 66.8647 51.3996 66.5541 51.6286 66.325C51.8577 66.096 52.1683 65.9673 52.4923 65.9673C52.8162 65.9673 53.1268 66.096 53.3559 66.325C53.5849 66.5541 53.7136 66.8647 53.7136 67.1886C53.7136 67.5125 53.5849 67.8232 53.3559 68.0522C53.1268 68.2813 52.8162 68.41 52.4923 68.41ZM52.4923 63.5272C51.521 63.5272 50.5896 63.913 49.9028 64.5998C49.216 65.2866 48.8302 66.218 48.8302 67.1893C48.8302 68.1605 49.216 69.092 49.9028 69.7787C50.5896 70.4655 51.521 70.8513 52.4923 70.8513C53.4635 70.8513 54.395 70.4655 55.0817 69.7787C55.7685 69.092 56.1543 68.1605 56.1543 67.1893C56.1543 66.218 55.7685 65.2866 55.0817 64.5998C54.395 63.913 53.4635 63.5272 52.4923 63.5272ZM10.9862 40.3328C10.9864 40.0089 11.1152 39.6983 11.3444 39.4694C11.5736 39.2405 11.8843 39.1119 12.2082 39.1121C12.5321 39.1123 12.8427 39.2411 13.0716 39.4703C13.3006 39.6995 13.4291 40.0102 13.4289 40.3341C13.4289 40.658 13.3002 40.9687 13.0712 41.1977C12.8421 41.4268 12.5315 41.5554 12.2076 41.5554C11.8836 41.5554 11.573 41.4268 11.3439 41.1977C11.1149 40.9687 10.9862 40.658 10.9862 40.3341V40.3328ZM15.869 40.3341C15.8692 39.8533 15.7746 39.3771 15.5908 38.9328C15.4069 38.4885 15.1374 38.0848 14.7975 37.7447C14.4576 37.4046 14.0541 37.1347 13.6099 36.9506C13.1658 36.7664 12.6897 36.6716 12.2089 36.6714C11.728 36.6712 11.2519 36.7657 10.8076 36.9496C10.3633 37.1334 9.95958 37.403 9.61946 37.7429C9.27935 38.0827 9.00951 38.4863 8.82535 38.9304C8.64119 39.3746 8.54631 39.8507 8.54614 40.3315C8.54597 41.3026 8.93156 42.2339 9.61809 42.9207C10.3046 43.6075 11.2358 43.9934 12.2069 43.9936C13.178 43.9938 14.1094 43.6082 14.7961 42.9216C15.4829 42.2351 15.8688 41.3039 15.869 40.3328V40.3341ZM53.7117 28.1259L54.9181 27.9371L53.7117 28.1259ZM55.147 26.15C54.6231 25.7694 53.9695 25.6124 53.3299 25.7136C52.6903 25.8149 52.1171 26.1661 51.7364 26.6899C51.3558 27.2138 51.1988 27.8674 51.3 28.507C51.4013 29.1466 51.7525 29.7198 52.2763 30.1005C52.5357 30.289 52.8297 30.4245 53.1415 30.4994C53.4532 30.5743 53.7767 30.587 54.0934 30.5369C54.4101 30.4868 54.7138 30.3747 54.9872 30.2072C55.2606 30.0397 55.4984 29.82 55.6869 29.5606C55.8754 29.3012 56.0109 29.0072 56.0858 28.6955C56.1607 28.3837 56.1734 28.0602 56.1233 27.7435C56.0732 27.4268 55.9611 27.1231 55.7936 26.8497C55.6261 26.5763 55.4064 26.3385 55.147 26.15ZM26.8552 62.3065C27.1759 62.3063 27.4935 62.3693 27.7898 62.4919C28.0862 62.6145 28.3555 62.7942 28.5823 63.0208C28.8092 63.2475 28.9893 63.5166 29.1121 63.8128C29.235 64.109 29.2983 64.4266 29.2985 64.7472C29.2987 65.0679 29.2357 65.3855 29.1131 65.6819C28.9906 65.9782 28.8108 66.2475 28.5842 66.4744C28.3575 66.7013 28.0884 66.8813 27.7922 67.0042C27.496 67.1271 27.1785 67.1904 26.8578 67.1906C26.2101 67.1909 25.5888 66.934 25.1306 66.4762C24.6724 66.0185 24.4148 65.3975 24.4145 64.7498C24.4141 64.1022 24.6711 63.4809 25.1288 63.0227C25.5865 62.5645 26.2075 62.3069 26.8552 62.3065ZM64.6979 42.7742C65.0216 42.7742 65.3321 42.6456 65.561 42.4167C65.7899 42.1877 65.9186 41.8772 65.9186 41.5535V40.3328C65.9239 40.1692 65.8963 40.0063 65.8373 39.8536C65.7784 39.7009 65.6894 39.5617 65.5756 39.4441C65.4618 39.3265 65.3255 39.233 65.1748 39.1691C65.0241 39.1053 64.8622 39.0724 64.6985 39.0724C64.5349 39.0724 64.3729 39.1053 64.2222 39.1691C64.0715 39.233 63.9352 39.3265 63.8214 39.4441C63.7076 39.5617 63.6186 39.7009 63.5597 39.8536C63.5008 40.0063 63.4731 40.1692 63.4785 40.3328V41.5535C63.4785 42.2272 64.0242 42.7742 64.6979 42.7742ZM65.9186 34.2294C65.9082 33.9127 65.7752 33.6124 65.5475 33.392C65.3198 33.1716 65.0154 33.0484 64.6985 33.0484C64.3816 33.0484 64.0772 33.1716 63.8495 33.392C63.6218 33.6124 63.4888 33.9127 63.4785 34.2294V35.45C63.4888 35.7667 63.6218 36.067 63.8495 36.2874C64.0772 36.5078 64.3816 36.631 64.6985 36.631C65.0154 36.631 65.3198 36.5078 65.5475 36.2874C65.7752 36.067 65.9082 35.7667 65.9186 35.45V34.2294ZM67.1405 39.1121H68.3612C68.685 39.1121 68.9955 38.9835 69.2244 38.7546C69.4533 38.5257 69.5819 38.2152 69.5819 37.8914C69.5819 37.5677 69.4533 37.2572 69.2244 37.0283C68.9955 36.7993 68.685 36.6707 68.3612 36.6707H67.1405C66.8168 36.6707 66.5063 36.7993 66.2774 37.0283C66.0485 37.2572 65.9198 37.5677 65.9198 37.8914C65.9198 38.2152 66.0485 38.5257 66.2774 38.7546C66.5063 38.9835 66.8168 39.1121 67.1405 39.1121ZM62.2565 36.6707H61.0358C60.8755 36.6707 60.7168 36.7023 60.5687 36.7637C60.4206 36.825 60.286 36.9149 60.1726 37.0283C60.0593 37.1416 59.9694 37.2762 59.908 37.4243C59.8467 37.5724 59.8151 37.7311 59.8151 37.8914C59.8151 38.0517 59.8467 38.2105 59.908 38.3586C59.9694 38.5067 60.0593 38.6412 60.1726 38.7546C60.286 38.8679 60.4206 38.9579 60.5687 39.0192C60.7168 39.0805 60.8755 39.1121 61.0358 39.1121H62.2565C62.5802 39.1121 62.8907 38.9835 63.1196 38.7546C63.3486 38.5257 63.4772 38.2152 63.4772 37.8914C63.4772 37.5677 63.3486 37.2572 63.1196 37.0283C62.8907 36.7993 62.5802 36.6707 62.2565 36.6707ZM39.0634 72.072C39.0634 72.3958 39.192 72.7063 39.4209 72.9352C39.6498 73.1641 39.9603 73.2927 40.2841 73.2927C40.6078 73.2927 40.9183 73.1641 41.1472 72.9352C41.3762 72.7063 41.5048 72.3958 41.5048 72.072V70.8513C41.5048 70.5276 41.3762 70.2171 41.1472 69.9882C40.9183 69.7593 40.6078 69.6306 40.2841 69.6306C39.9603 69.6306 39.6498 69.7593 39.4209 69.9882C39.192 70.2171 39.0634 70.5276 39.0634 70.8513V72.072ZM39.0634 65.9686C39.0634 66.2923 39.192 66.6028 39.4209 66.8317C39.6498 67.0607 39.9603 67.1893 40.2841 67.1893C40.6078 67.1893 40.9183 67.0607 41.1472 66.8317C41.3762 66.6028 41.5048 66.2923 41.5048 65.9686V64.7479C41.5048 64.4241 41.3762 64.1137 41.1472 63.8847C40.9183 63.6558 40.6078 63.5272 40.2841 63.5272C39.9603 63.5272 39.6498 63.6558 39.4209 63.8847C39.192 64.1137 39.0634 64.4241 39.0634 64.7479V65.9686ZM43.9461 67.1893H42.7255C42.5604 67.1817 42.3956 67.2076 42.2408 67.2655C42.0861 67.3235 41.9448 67.4121 41.8253 67.5262C41.7058 67.6403 41.6107 67.7775 41.5457 67.9294C41.4808 68.0813 41.4473 68.2448 41.4473 68.41C41.4473 68.5752 41.4808 68.7387 41.5457 68.8905C41.6107 69.0424 41.7058 69.1796 41.8253 69.2937C41.9448 69.4078 42.0861 69.4965 42.2408 69.5544C42.3956 69.6123 42.5604 69.6382 42.7255 69.6306H43.9461C44.2699 69.6306 44.5804 69.502 44.8093 69.2731C45.0382 69.0442 45.1668 68.7337 45.1668 68.41C45.1668 68.0862 45.0382 67.7757 44.8093 67.5468C44.5804 67.3179 44.2699 67.1893 43.9461 67.1893ZM37.8427 67.1893H36.6233C36.4583 67.1817 36.2934 67.2076 36.1387 67.2655C35.984 67.3235 35.8426 67.4121 35.7231 67.5262C35.6037 67.6403 35.5086 67.7775 35.4436 67.9294C35.3786 68.0813 35.3451 68.2448 35.3451 68.41C35.3451 68.5752 35.3786 68.7387 35.4436 68.8905C35.5086 69.0424 35.6037 69.1796 35.7231 69.2937C35.8426 69.4078 35.984 69.4965 36.1387 69.5544C36.2934 69.6123 36.4583 69.6382 36.6233 69.6306H37.8427C38.1664 69.6306 38.4769 69.502 38.7059 69.2731C38.9348 69.0442 39.0634 68.7337 39.0634 68.41C39.0634 68.0862 38.9348 67.7757 38.7059 67.5468C38.4769 67.3179 38.1664 67.1893 37.8427 67.1893Z" fill="#020303"/>
</g>
<defs>
<clipPath id="clip0">
<rect width="75" height="73.7069" fill="white"/>
</clipPath>
</defs>
</svg>
