<svg width="63" height="75" viewBox="0 0 63 75" fill="none" xmlns="http://www.w3.org/2000/svg">
<path fill-rule="evenodd" clip-rule="evenodd" d="M56.0773 43.2038C55.8788 43.1687 55.7003 43.0622 55.5577 42.9195C55.1542 42.5159 54.0256 41.3875 54.0256 41.3875L52.4722 42.9403C52.2924 43.1203 52.0532 43.2192 51.799 43.2192C51.477 43.2192 51.1797 43.0608 50.9957 42.7805C50.7472 42.4015 50.8266 41.8936 51.147 41.573L52.6791 40.0415L51.1256 38.4883C50.7548 38.1171 50.7546 37.5129 51.1256 37.1418C51.3474 36.9202 51.6596 36.8214 51.9792 36.8799C52.1755 36.9157 52.3521 37.0218 52.493 37.1628L54.0256 38.6952L55.5577 37.1629C55.6986 37.0222 55.8748 36.9158 56.0708 36.8799C56.3905 36.8213 56.703 36.9202 56.9253 37.1422C57.2962 37.5131 57.296 38.1171 56.9247 38.4885L55.3717 40.0415L56.8986 41.5682C57.243 41.9123 57.3049 42.4682 57.0041 42.8512C56.7826 43.1336 56.435 43.2669 56.0773 43.2038Z" fill="black"/>
<path fill-rule="evenodd" clip-rule="evenodd" d="M9.03496 25.4053C8.83954 25.3689 8.66384 25.2626 8.52324 25.122L6.99153 23.5904L5.45965 25.1222C5.31905 25.2628 5.143 25.3691 4.94741 25.4054C4.62747 25.4647 4.31411 25.3658 4.09137 25.1433C3.72076 24.7725 3.72076 24.1683 4.09188 23.7967L5.64486 22.244L4.11402 20.7133C3.79443 20.3939 3.7135 19.8885 3.95872 19.5093C4.14134 19.2269 4.4407 19.0664 4.76496 19.0664C5.01935 19.0664 5.25852 19.1653 5.43855 19.345L6.99153 20.8978L8.54468 19.3446C8.72436 19.1653 8.96354 19.0664 9.2181 19.0664C9.50777 19.0664 9.7779 19.1947 9.96329 19.4247C10.2716 19.8069 10.2128 20.3694 9.86541 20.7168L8.33802 22.244L9.89135 23.7971C10.2621 24.1683 10.2621 24.7725 9.89117 25.1436C9.66878 25.3658 9.35524 25.4649 9.03496 25.4053Z" fill="black"/>
<path fill-rule="evenodd" clip-rule="evenodd" d="M23.0182 7.60849C22.8228 7.57217 22.6471 7.46583 22.5065 7.32525L20.9746 5.79355L19.4425 7.32542C19.3019 7.466 19.126 7.57235 18.9304 7.60849C18.6106 7.66797 18.2971 7.56889 18.0747 7.34652C17.7039 6.97561 17.7039 6.37144 18.075 6.00001L19.6279 4.44721L18.0982 2.91741C17.7793 2.59873 17.6965 2.09433 17.9405 1.71529C18.156 1.38035 18.5335 1.21608 18.9228 1.28507C19.1215 1.32018 19.3005 1.42739 19.4432 1.57021L20.9746 3.1014L22.5059 1.57021C22.6484 1.42756 22.8273 1.32035 23.026 1.28507C23.3838 1.22161 23.7317 1.35511 23.9535 1.63748C24.254 2.02049 24.1923 2.57607 23.8481 2.92035L22.3211 4.44721L23.8744 6.00036C24.2452 6.37144 24.2454 6.97561 23.8743 7.34669C23.652 7.56889 23.3385 7.66797 23.0182 7.60849Z" fill="black"/>
<path fill-rule="evenodd" clip-rule="evenodd" d="M38.2064 6.73574C36.498 8.51371 38.0952 13.9335 43.1464 18.9283C45.9345 21.6852 50.206 24.4671 53.4631 24.4671C54.3614 24.4671 55.0503 24.2362 55.5107 23.7809C57.8175 21.4994 59.0879 18.4666 59.0879 15.2411C59.0879 12.0153 57.8175 8.98289 55.5107 6.70201C53.2038 4.42112 50.137 3.16488 46.8749 3.16488C43.6132 3.16488 40.5464 4.42112 38.2397 6.70201L38.215 6.72555L38.2064 6.73574ZM35.5302 15.5662C35.0362 15.7371 34.7524 16.245 34.8601 16.7516C35.5178 19.8494 36.6528 22.2113 38.2395 23.7807C39.8537 25.3769 42.1919 26.4756 45.3696 27.1271C45.875 27.2308 46.3793 26.9423 46.5497 26.4603C46.7127 25.9995 46.5234 25.492 46.0998 25.2416C44.2917 24.1727 42.5399 22.8047 40.883 21.1661C39.2243 19.5263 37.8409 17.7954 36.7619 16.0109C36.5088 15.5922 35.996 15.4052 35.5302 15.5662ZM9.5217 48.4594L13.2828 52.1784L41.3262 29.5321L40.0846 28.9285C38.5631 28.1885 37.1809 27.2096 35.9763 26.0185C34.7711 24.8264 33.7813 23.4596 33.0342 21.9563L32.4238 20.7282L9.5217 48.4594ZM8.72861 75C8.30142 74.9998 7.89821 74.8327 7.59327 74.5291L2.43013 69.4159C-1.04484 65.9793 -0.758565 60.1059 3.06772 56.3226L8.00768 51.438L6.23527 49.6856C5.65205 49.1087 5.60567 48.1975 6.12741 47.5662L31.5413 16.7936L31.514 16.4427C31.4791 15.9993 31.4623 15.6062 31.4623 15.2411C31.4623 11.0438 33.1666 7.10529 36.2514 4.19866C39.1227 1.49323 42.9712 -0.0151728 46.9373 0.000115084C51.0314 0.0161059 54.8774 1.5999 57.7733 4.464C60.6847 7.34287 62.2881 11.1701 62.2881 15.2414C62.2881 19.3124 60.6847 23.1398 57.7734 26.0185C54.8628 28.8972 50.9923 30.4824 46.8748 30.4824C46.5076 30.4824 46.1101 30.4657 45.6595 30.4316L45.3049 30.4047L14.1857 55.5354C13.9012 55.7652 13.5419 55.8919 13.1742 55.8919C12.7465 55.8919 12.3445 55.7273 12.0424 55.4283L10.2704 53.6759L5.33059 58.561C2.79602 61.0669 2.50387 65.013 4.69246 67.1775L9.86022 72.2877C10.479 72.9029 10.4712 73.9142 9.84103 74.5403C9.54267 74.8366 9.14781 75 8.72861 75Z" fill="black"/>
</svg>
