<svg width="40" height="40" viewBox="0 0 40 40" fill="none" xmlns="http://www.w3.org/2000/svg">
<path d="M33.3114 0H23.8391C23.5153 0 23.2529 0.262344 23.2529 0.586172C23.2529 0.91 23.5153 1.17234 23.8391 1.17234H33.117V37.1877L30.277 38.7992L27.3333 37.1288C27.0357 36.96 26.666 36.9601 26.368 37.1289L23.425 38.7992L20.4817 37.1288C20.1838 36.9599 19.8141 36.96 19.5164 37.1289L16.5734 38.7991L13.6306 37.129C13.3328 36.9601 12.9628 36.9599 12.665 37.129L9.72253 38.7991L6.88316 37.1877V34.6253C6.88316 34.3015 6.62074 34.0391 6.29699 34.0391C5.97324 34.0391 5.71082 34.3015 5.71082 34.6253V37.3008C5.71082 37.652 5.90058 37.9779 6.20605 38.1513L9.23988 39.8731C9.53777 40.0421 9.90769 40.0421 10.2053 39.8731L13.1478 38.203L16.0907 39.8731C16.2396 39.9576 16.4067 39.9999 16.5735 39.9999C16.7404 39.9999 16.9074 39.9577 17.0562 39.8731L19.9993 38.2029L22.9426 39.8733C23.2404 40.0422 23.6102 40.0422 23.9079 39.8732L26.851 38.2029L29.7946 39.8733C30.0923 40.042 30.4621 40.0422 30.7598 39.8733L33.7944 38.1513C34.0998 37.9778 34.2896 37.652 34.2896 37.3008V0.977969C34.2893 0.438672 33.8507 0 33.3114 0Z" fill="#828282"/>
<path d="M20.2351 0H6.68863C6.14949 0 5.71082 0.438672 5.71082 0.977969V30.9691C5.71082 31.2928 5.97324 31.5552 6.29699 31.5552C6.62074 31.5552 6.88316 31.2928 6.88316 30.969V1.17234H20.235C20.5588 1.17234 20.8212 0.91 20.8212 0.586172C20.8213 0.262344 20.5588 0 20.2351 0Z" fill="#828282"/>
<path d="M13.967 16.7422H12.0344C11.7107 16.7422 11.4482 17.0045 11.4482 17.3284C11.4482 17.6522 11.7107 17.9145 12.0344 17.9145H13.967C14.2907 17.9145 14.5532 17.6522 14.5532 17.3284C14.5532 17.0045 14.2907 16.7422 13.967 16.7422Z" fill="#828282"/>
<path d="M27.9654 16.7422H16.7877C16.464 16.7422 16.2015 17.0045 16.2015 17.3284C16.2015 17.6522 16.464 17.9145 16.7877 17.9145H27.9654C28.2892 17.9145 28.5515 17.6522 28.5515 17.3284C28.5515 17.0045 28.2892 16.7422 27.9654 16.7422Z" fill="#828282"/>
<path d="M13.967 20.043H12.0344C11.7107 20.043 11.4482 20.3053 11.4482 20.6291C11.4482 20.953 11.7107 21.2153 12.0344 21.2153H13.967C14.2907 21.2153 14.5532 20.953 14.5532 20.6291C14.5532 20.3054 14.2907 20.043 13.967 20.043Z" fill="#828282"/>
<path d="M27.9654 20.043H16.7877C16.464 20.043 16.2015 20.3053 16.2015 20.6291C16.2015 20.953 16.464 21.2153 16.7877 21.2153H27.9654C28.2892 21.2153 28.5515 20.953 28.5515 20.6291C28.5515 20.3054 28.2892 20.043 27.9654 20.043Z" fill="#828282"/>
<path d="M13.967 23.3477H12.0344C11.7107 23.3477 11.4482 23.61 11.4482 23.9338C11.4482 24.2577 11.7107 24.52 12.0344 24.52H13.967C14.2907 24.52 14.5532 24.2577 14.5532 23.9338C14.5532 23.61 14.2907 23.3477 13.967 23.3477Z" fill="#828282"/>
<path d="M27.9654 23.3477H16.7877C16.464 23.3477 16.2015 23.61 16.2015 23.9338C16.2015 24.2577 16.464 24.52 16.7877 24.52H27.9654C28.2892 24.52 28.5515 24.2577 28.5515 23.9338C28.5515 23.61 28.2892 23.3477 27.9654 23.3477Z" fill="#828282"/>
<path d="M13.967 26.6484H12.0344C11.7107 26.6484 11.4482 26.9108 11.4482 27.2346C11.4482 27.5584 11.7107 27.8208 12.0344 27.8208H13.967C14.2907 27.8208 14.5532 27.5584 14.5532 27.2346C14.5532 26.9108 14.2907 26.6484 13.967 26.6484Z" fill="#828282"/>
<path d="M27.9654 26.6484H16.7877C16.464 26.6484 16.2015 26.9108 16.2015 27.2346C16.2015 27.5584 16.464 27.8208 16.7877 27.8208H27.9654C28.2892 27.8208 28.5515 27.5584 28.5515 27.2346C28.5515 26.9108 28.2892 26.6484 27.9654 26.6484Z" fill="#828282"/>
<path d="M13.967 29.9531H12.0344C11.7107 29.9531 11.4482 30.2155 11.4482 30.5393C11.4482 30.8631 11.7107 31.1255 12.0344 31.1255H13.967C14.2907 31.1255 14.5532 30.8631 14.5532 30.5393C14.5532 30.2155 14.2907 29.9531 13.967 29.9531Z" fill="#828282"/>
<path d="M27.9654 29.9531H16.7877C16.464 29.9531 16.2015 30.2155 16.2015 30.5393C16.2015 30.8631 16.464 31.1255 16.7877 31.1255H27.9654C28.2892 31.1255 28.5515 30.8631 28.5515 30.5393C28.5515 30.2155 28.2892 29.9531 27.9654 29.9531Z" fill="#828282"/>
<path d="M27.1884 7.98828H19.2621C18.9383 7.98828 18.6759 8.25062 18.6759 8.57445C18.6759 8.89828 18.9383 9.16062 19.2621 9.16062H27.1882C27.5121 9.16062 27.7744 8.89828 27.7744 8.57445C27.7745 8.25062 27.5122 7.98828 27.1884 7.98828Z" fill="#828282"/>
<path d="M25.1643 10.5781H19.2621C18.9383 10.5781 18.6759 10.8405 18.6759 11.1643C18.6759 11.4881 18.9383 11.7505 19.2621 11.7505H25.1643C25.4882 11.7505 25.7505 11.4881 25.7505 11.1643C25.7505 10.8405 25.4882 10.5781 25.1643 10.5781Z" fill="#828282"/>
<path d="M25.1643 5.55469H19.2621C18.9383 5.55469 18.6759 5.81703 18.6759 6.14086C18.6759 6.46469 18.9383 6.72703 19.2621 6.72703H25.1643C25.4882 6.72703 25.7505 6.46469 25.7505 6.14086C25.7505 5.81703 25.4882 5.55469 25.1643 5.55469Z" fill="#828282"/>
<path d="M15.5129 8.24086V6.76398C15.6347 6.80281 15.7273 6.85047 15.8051 6.89047C15.9149 6.94687 16.0186 7.00015 16.1527 7.00015C16.5133 7.00015 16.7347 6.63219 16.7347 6.36844C16.7347 5.87867 16.0886 5.62773 15.5009 5.54398C15.447 5.30156 15.2193 5.11328 14.9559 5.11328C14.6759 5.11328 14.4428 5.30891 14.3983 5.56461C13.4599 5.73953 12.9112 6.36867 12.9112 7.29914C12.9112 8.48976 13.7063 8.87672 14.3906 9.11711V11.0195C14.0682 10.9403 13.9216 10.7706 13.8069 10.6376C13.7078 10.5229 13.5723 10.3659 13.3437 10.3659C13.0105 10.3659 12.7617 10.6951 12.7617 10.9894C12.7617 11.2762 12.9831 11.5953 13.3541 11.8431C13.5728 11.9892 13.9163 12.1576 14.3932 12.2198C14.4198 12.4943 14.662 12.71 14.9561 12.71C15.258 12.7101 15.513 12.4626 15.513 12.1697V12.1598C16.3895 11.9273 16.8843 11.2444 16.8843 10.2416C16.8843 8.94101 16.0777 8.46781 15.5129 8.24086ZM14.4072 7.81047C14.1782 7.67773 14.0916 7.52429 14.0916 7.25765C14.0916 7.13226 14.0916 6.90469 14.4072 6.77726V7.81047ZM15.5046 10.855V9.65914C15.6316 9.80445 15.6955 9.99437 15.6955 10.2746C15.6955 10.54 15.6357 10.7288 15.5046 10.855Z" fill="#828282"/>
</svg>
