<svg width="24" height="24" viewBox="0 0 24 24" fill="none" xmlns="http://www.w3.org/2000/svg">
<path d="M20.9874 14.2592V8.98731C20.9874 8.59899 20.6726 8.28418 20.2843 8.28418H14.2593C13.871 8.28418 13.5562 8.59899 13.5562 8.98731V14.2592C13.5562 16.0676 14.855 17.5775 16.5687 17.9072V22.5936H15.0124C14.6241 22.5936 14.3093 22.9084 14.3093 23.2967C14.3093 23.685 14.6241 23.9998 15.0124 23.9998H19.5312C19.9195 23.9998 20.2343 23.685 20.2343 23.2967C20.2343 22.9084 19.9195 22.5936 19.5312 22.5936H17.9749V17.9073C19.6885 17.5776 20.9874 16.0676 20.9874 14.2592Z" fill="#828282"/>
<path d="M9.69025 0.703125C9.69025 0.314812 9.37544 0 8.98713 0H5.97461C5.5863 0 5.27148 0.314812 5.27148 0.703125V4.51875H9.69025V0.703125Z" fill="#828282"/>
<path d="M9.69035 8.36845V5.9248H5.27158V8.36831C3.97638 8.68448 3.01221 9.85472 3.01221 11.2459V23.2967C3.01221 23.685 3.32702 23.9998 3.71533 23.9998H11.2466C11.6349 23.9998 11.9497 23.685 11.9497 23.2967V20.9873H6.72785C6.33954 20.9873 6.02472 20.6725 6.02472 20.2842V11.9998C6.02472 11.6115 6.33954 11.2967 6.72785 11.2967H11.9497V11.2459C11.9497 9.85495 10.9857 8.68481 9.69035 8.36845Z" fill="#828282"/>
<path d="M7.43066 12.7031H11.9494V16.5688H7.43066V12.7031Z" fill="#828282"/>
<path d="M7.43066 17.9756H11.9494V19.5819H7.43066V17.9756Z" fill="#828282"/>
</svg>
