<svg width="24" height="24" viewBox="0 0 24 24" fill="none" xmlns="http://www.w3.org/2000/svg">
<g clip-path="url(#clip0)">
<path d="M23.3757 20.4059L13.9648 10.995L2.96984 0H2.11057L1.93512 0.445828C1.47204 1.62258 1.27418 2.82614 1.36301 3.92625C1.46426 5.18025 1.94065 6.26592 2.74076 7.06603L11.324 15.6493L12.4562 14.5172L20.3914 23.3903C21.1808 24.1797 22.5394 24.2265 23.3757 23.3903C24.1985 22.5675 24.1985 21.2287 23.3757 20.4059Z" fill="#828282"/>
<path d="M7.34678 13.6611L0.624387 20.3835C-0.198363 21.2063 -0.198363 22.5451 0.624387 23.3678C1.40598 24.1494 2.75809 24.2184 3.60868 23.3678L10.3311 16.6454L7.34678 13.6611Z" fill="#828282"/>
<path d="M22.9806 3.99573L19.1673 7.80901L18.1725 6.81423L21.9858 3.0009L20.991 2.00612L17.1777 5.8194L16.1829 4.82462L19.9963 1.01134L19.0015 0.0166016L14.0276 4.99051C13.4191 5.59899 13.0558 6.40693 13.0044 7.26559C12.9915 7.48313 12.9421 7.69712 12.8604 7.90065L16.0914 11.1317C16.2949 11.0498 16.509 11.0005 16.7265 10.9876C17.5851 10.9363 18.3931 10.5729 19.0015 9.96441L23.9754 4.99055L22.9806 3.99573Z" fill="#828282"/>
</g>
<defs>
<clipPath id="clip0">
<rect width="24" height="24" fill="white"/>
</clipPath>
</defs>
</svg>
