<svg width="16" height="16" viewBox="0 0 16 16" fill="none" xmlns="http://www.w3.org/2000/svg">
<path d="M15.9981 12.892C15.9758 12.2731 15.718 11.6955 15.2722 11.2657C14.3994 10.4241 13.6681 9.9382 12.9708 9.7367C12.01 9.45902 11.1201 9.71151 10.3258 10.4872C10.3246 10.4883 10.3234 10.4895 10.3223 10.4907L9.47728 11.3294C8.94919 11.0317 7.92234 10.3781 6.81292 9.26868L6.73067 9.18649C5.62107 8.07692 4.96749 7.04988 4.67009 6.52239L5.50882 5.67737C5.51001 5.67619 5.5112 5.675 5.51238 5.67378C6.28803 4.87961 6.54052 3.98969 6.26287 3.0288C6.06134 2.33153 5.57551 1.60023 4.73384 0.727408C4.30403 0.281698 3.72651 0.02389 3.10762 0.00157798C2.48835 -0.0207653 1.89411 0.194793 1.43325 0.608472L1.41531 0.624597C1.407 0.632066 1.39887 0.639784 1.39093 0.64769C0.473484 1.56514 -0.00744399 2.84952 8.71101e-05 4.36202C0.0129306 6.93141 1.42506 9.86973 3.77748 12.2221C4.22107 12.6657 4.72521 13.1047 5.27589 13.5269C5.54979 13.7369 5.94209 13.6852 6.15212 13.4113C6.36218 13.1373 6.31037 12.745 6.03644 12.535C5.5291 12.146 5.06646 11.7433 4.66134 11.3383C2.53651 9.21349 1.26125 6.60323 1.25003 4.3558C1.24425 3.19095 1.59465 2.21869 2.26348 1.54289L2.26826 1.53858C2.72253 1.13081 3.4103 1.15562 3.83411 1.59508C5.45217 3.27311 5.33501 4.06531 4.62003 4.79848L3.46149 5.96571C3.2798 6.14877 3.22921 6.42464 3.33412 6.66026C3.36352 6.72632 4.07504 8.29857 5.84703 10.0706L5.92931 10.1527C7.70109 11.9245 9.27337 12.636 9.33943 12.6654C9.57499 12.7704 9.85092 12.7198 10.034 12.5381L11.2012 11.3795C11.9345 10.6645 12.7267 10.5474 14.4046 12.1655C14.8441 12.5892 14.8689 13.277 14.4612 13.7312L14.4568 13.7361C13.7865 14.3995 12.8246 14.7496 11.6724 14.7496C11.6629 14.7496 11.6534 14.7496 11.6439 14.7496C10.7229 14.745 9.65649 14.4925 8.55992 14.0195C8.24305 13.8828 7.87521 14.0289 7.73853 14.3459C7.60181 14.6628 7.7479 15.0306 8.06487 15.1673C9.3324 15.714 10.5344 15.994 11.6377 15.9995C11.6494 15.9996 11.661 15.9996 11.6727 15.9996C13.17 15.9996 14.4416 15.519 15.352 14.6087C15.3599 14.6008 15.3676 14.5927 15.3751 14.5843L15.3913 14.5663C15.8049 14.1055 16.0205 13.5108 15.9981 12.892Z" fill="#2F2F2F"/>
</svg>
