<svg width="75" height="63" viewBox="0 0 75 63" fill="none" xmlns="http://www.w3.org/2000/svg">
<path fill-rule="evenodd" clip-rule="evenodd" d="M35.5751 9.46197H39.4248V7.18929H35.5751V9.46197ZM37.5 13.4972C31.7427 13.4972 27.0049 17.603 26.2346 23.26L26.181 23.6549H48.8192L48.7654 23.26C47.995 17.603 43.2572 13.4972 37.5 13.4972ZM43.8079 29.9629C44.4856 29.9629 45.037 30.5143 45.037 31.1919V36.2708H48.8868V26.1131H26.1131V36.2708H29.9629V31.1919C29.9629 30.5143 30.5143 29.9629 31.1919 29.9629C31.8697 29.9629 32.4212 30.5143 32.4212 31.1919V36.2708H36.2708V31.1919C36.2708 30.5143 36.8222 29.9629 37.5 29.9629C38.1776 29.9629 38.7291 30.5143 38.7291 31.1919V36.2708H42.5789V31.1919C42.5789 30.5143 43.1303 29.9629 43.8079 29.9629ZM2.45816 41.0018H11.0389V37.152H2.45816V41.0018ZM63.9609 41.0018H72.5417V37.152H63.9609V41.0018ZM13.4972 41.1455L23.6549 42.4152V38.5853L13.4972 37.3156V41.1455ZM51.3451 38.5853V42.4152L61.5028 41.1455V37.3156L51.3451 38.5853ZM26.1131 42.5787H48.8868V38.7291H26.1131V42.5787ZM2.45816 59.9257H11.0389V43.4601H2.45816V59.9257ZM13.4972 59.9257H17.3468V44.1047L13.4972 43.6236V59.9257ZM19.8052 59.9257H23.6549V44.8933L19.8052 44.4121V59.9257ZM26.1131 59.9257H29.9629V45.037H26.1131V59.9257ZM32.4212 59.9257H36.2708V45.037H32.4212V59.9257ZM38.7291 59.9257H42.5789V45.037H38.7291V59.9257ZM45.037 59.9257H48.8868V45.037H45.037V59.9257ZM51.3451 44.8933V59.9257H55.1947V44.4121L51.3451 44.8933ZM57.653 44.1047V59.9257H61.5028V43.6236L57.653 44.1047ZM63.9609 59.9257H72.5417V43.4601H63.9609V59.9257ZM1.57542 62.384C0.706726 62.384 0 61.6773 0 60.8086V36.2691C0 35.4006 0.706726 34.6938 1.57542 34.6938H13.8202L23.6549 36.1149V23.6549H23.7104L23.7444 23.3449C24.3181 18.1123 27.906 13.5966 32.8847 11.8407L33.1169 11.7587V6.26716C33.1169 5.42004 33.8061 4.73098 34.6532 4.73098H36.2708V1.22908C36.2708 0.551299 36.8222 0 37.5 0C38.1776 0 38.7291 0.551299 38.7291 1.22908V4.73098H40.3468C41.1939 4.73098 41.8831 5.42004 41.8831 6.26716V11.7587L42.1154 11.8407C47.0926 13.596 50.6804 18.1117 51.2558 23.345L51.2898 23.6549H51.3451V36.1149L61.18 34.6938H73.4246C74.2933 34.6938 75 35.4006 75 36.2691V60.8086C75 61.6773 74.2933 62.384 73.4246 62.384H1.57542Z" fill="black"/>
</svg>
