<svg width="24" height="24" viewBox="0 0 24 24" fill="none" xmlns="http://www.w3.org/2000/svg">
<rect width="24" height="24" fill="#BDBDBD"/>
<path d="M19.75 10.875V8.625H18.625V10.875H16.375V12H18.625V14.25H19.75V12H22V10.875H19.75Z" fill="white"/>
<path d="M9.625 10.875V13.125H12.8076C12.343 14.4345 11.092 15.375 9.625 15.375C7.76425 15.375 6.25 13.8608 6.25 12C6.25 10.1393 7.76425 8.625 9.625 8.625C10.4316 8.625 11.2079 8.91412 11.8109 9.4395L13.2891 7.743C12.2766 6.861 10.9761 6.375 9.625 6.375C6.52338 6.375 4 8.89838 4 12C4 15.1016 6.52338 17.625 9.625 17.625C12.7266 17.625 15.25 15.1016 15.25 12V10.875H9.625Z" fill="white"/>
</svg>
