<svg width="24" height="24" viewBox="0 0 24 24" fill="none" xmlns="http://www.w3.org/2000/svg">
<rect width="24" height="24" fill="#BDBDBD"/>
<g clip-path="url(#clip0)">
<path d="M14.0304 6.83488C14.5328 6.90592 15.0248 7.0321 15.5109 7.18149C16.3595 7.44281 17.1603 7.80586 17.9134 8.27683C17.9658 8.30934 18.0358 8.32998 18.0975 8.32998C18.9821 8.33363 19.8664 8.33235 20.7502 8.33308C20.8215 8.33308 20.8923 8.34057 20.9634 8.34459C20.9634 8.36193 20.9659 8.36924 20.963 8.37326C20.9217 8.43681 20.8799 8.49945 20.8384 8.56282C20.5384 9.02301 20.282 9.5044 20.1306 10.0365C20.1142 10.0937 20.1107 10.1416 20.1494 10.1976C20.9369 11.3284 21.1882 12.5698 20.8591 13.9081C20.5705 15.0818 19.8978 15.9969 18.8755 16.6448C18.1448 17.1081 17.3376 17.3287 16.4753 17.3334C16.113 17.3356 15.7525 17.2869 15.3986 17.1952C14.5363 16.9715 13.797 16.5416 13.1878 15.8906C13.1075 15.8051 13.0319 15.7158 12.9462 15.6192C12.6241 16.0993 12.307 16.5716 11.9823 17.0562C11.6589 16.573 11.3463 16.1053 11.0344 15.6395C11.0128 15.6508 11.0066 15.6521 11.0024 15.6561C10.9953 15.6619 10.9893 15.6691 10.9836 15.6758C10.2467 16.546 9.31976 17.0794 8.19045 17.2578C7.56224 17.3574 6.94006 17.3216 6.32993 17.1534C5.46523 16.9158 4.73037 16.4596 4.13668 15.7865C3.5565 15.1283 3.19564 14.3642 3.06014 13.4955C2.9051 12.6847 3.09393 11.9029 3.14104 11.7132C3.27764 11.1617 3.51577 10.6553 3.84266 10.1896C3.86567 10.1565 3.87371 10.0981 3.86275 10.0586C3.72944 9.56977 3.4997 9.1251 3.23071 8.69923C3.16241 8.59094 3.08059 8.49068 3.00499 8.38677C3.00499 8.3749 3.00499 8.36266 3.00499 8.35061C3.02015 8.35244 3.03512 8.35536 3.04991 8.35536C3.95497 8.35573 4.85985 8.35609 5.76491 8.35426C5.80435 8.35426 5.84818 8.33801 5.88178 8.31646C6.51766 7.90849 7.19518 7.58526 7.90702 7.33361C8.42037 7.15245 8.94448 7.0111 9.47901 6.90756C9.99655 6.80748 10.5168 6.73699 11.0426 6.7023C12.3244 6.60368 13.3489 6.73937 14.0304 6.83488ZM12.8958 12.8122C12.8958 14.7996 14.5083 16.4233 16.4886 16.4156C18.4765 16.4085 20.0817 14.8305 20.0802 12.8211C20.0787 10.7504 18.399 9.19376 16.4116 9.23412C14.4495 9.27485 12.9137 10.8563 12.8958 12.8122ZM7.50654 9.22042C5.57334 9.20362 3.88777 10.8171 3.92155 12.8723C3.95296 14.7888 5.53262 16.4136 7.54672 16.3962C9.51608 16.3794 11.099 14.7713 11.1027 12.8239C11.1058 10.8231 9.50348 9.22042 7.50654 9.22042ZM7.68478 8.28286C8.77684 8.34952 9.73613 8.73009 10.5466 9.46714C11.3554 10.2027 11.8293 11.1204 12.0015 12.1995C12.1787 11.1332 12.6401 10.2241 13.4338 9.49581C14.2287 8.7668 15.1753 8.38421 16.2494 8.30331C14.9747 7.73665 13.6307 7.49596 12.2471 7.46929C10.6748 7.43843 9.14536 7.67017 7.68478 8.28286Z" fill="white"/>
<path d="M16.4814 10.5452C17.7113 10.5432 18.7075 11.5341 18.7075 12.7628C18.7075 13.9962 17.7283 14.9496 16.573 14.9937C15.2828 15.0431 14.2505 14.0152 14.2509 12.7683C14.252 11.5071 15.2916 10.5244 16.4814 10.5452ZM17.9321 12.7683C17.9315 11.9666 17.2834 11.315 16.4872 11.315C15.6819 11.315 15.0263 11.9631 15.023 12.7624C15.02 13.5583 15.6789 14.2204 16.4768 14.2226C17.2759 14.2257 17.9324 13.5685 17.9321 12.7683Z" fill="white"/>
<path d="M7.45896 10.5453C8.68816 10.544 9.68581 11.5367 9.68271 12.7652C9.67924 14.0086 8.69912 14.9413 7.56415 14.9929C6.26883 15.0521 5.2237 14.0196 5.22608 12.7659C5.22863 11.4958 6.27541 10.5241 7.45896 10.5453ZM8.90804 12.7633C8.90566 11.9567 8.25335 11.3137 7.43905 11.3152C6.65361 11.3166 5.99545 11.9795 5.99728 12.7679C5.99929 13.5654 6.65671 14.2212 7.45677 14.2234C8.25189 14.2252 8.91005 13.563 8.90804 12.7633Z" fill="white"/>
<path d="M16.4823 12.0293C16.89 12.0289 17.2241 12.3633 17.2203 12.7685C17.2163 13.1747 16.8878 13.5038 16.4869 13.5039C16.0742 13.5039 15.7424 13.1778 15.7433 12.7737C15.744 12.3544 16.0663 12.0297 16.4823 12.0293Z" fill="white"/>
<path d="M7.45529 12.0234C7.86911 12.0231 8.20166 12.3536 8.2033 12.7661C8.20494 13.1752 7.86929 13.511 7.45748 13.512C7.03582 13.5129 6.71057 13.1871 6.71094 12.7632C6.71094 12.347 7.03545 12.024 7.45529 12.0234Z" fill="white"/>
</g>
<defs>
<clipPath id="clip0">
<rect width="18" height="18" fill="white" transform="translate(3 3)"/>
</clipPath>
</defs>
</svg>
