<svg width="24" height="24" viewBox="0 0 24 24" fill="none" xmlns="http://www.w3.org/2000/svg">
<rect width="24" height="24" fill="#BDBDBD"/>
<g clip-path="url(#clip0)">
<path d="M14.0305 6.83488C14.5329 6.90592 15.0249 7.0321 15.511 7.18149C16.3597 7.44281 17.1604 7.80586 17.9136 8.27683C17.966 8.30934 18.0359 8.32998 18.0976 8.32998C18.9822 8.33363 19.8665 8.33235 20.7504 8.33308C20.8216 8.33308 20.8924 8.34057 20.9635 8.34459C20.9635 8.36193 20.966 8.36924 20.9631 8.37326C20.9218 8.43681 20.88 8.49945 20.8386 8.56282C20.5385 9.02301 20.2821 9.5044 20.1307 10.0365C20.1143 10.0937 20.1108 10.1416 20.1495 10.1976C20.937 11.3284 21.1883 12.5698 20.8592 13.9081C20.5707 15.0818 19.8979 15.9969 18.8756 16.6448C18.1449 17.1081 17.3378 17.3287 16.4754 17.3334C16.1131 17.3356 15.7526 17.2869 15.3987 17.1952C14.5364 16.9715 13.7971 16.5416 13.1879 15.8906C13.1076 15.8051 13.032 15.7158 12.9463 15.6192C12.6242 16.0993 12.3072 16.5716 11.9825 17.0562C11.659 16.573 11.3464 16.1053 11.0345 15.6395C11.0129 15.6508 11.0067 15.6521 11.0025 15.6561C10.9954 15.6619 10.9894 15.6691 10.9837 15.6758C10.2469 16.546 9.31989 17.0794 8.19057 17.2578C7.56236 17.3574 6.94018 17.3216 6.33005 17.1534C5.46535 16.9158 4.73049 16.4596 4.1368 15.7865C3.55662 15.1283 3.19577 14.3642 3.06026 13.4955C2.90522 12.6847 3.09405 11.9029 3.14116 11.7132C3.27776 11.1617 3.5159 10.6553 3.84278 10.1896C3.86579 10.1565 3.87383 10.0981 3.86287 10.0586C3.72956 9.56977 3.49983 9.1251 3.23083 8.69923C3.16253 8.59094 3.08072 8.49068 3.00511 8.38677C3.00511 8.3749 3.00511 8.36266 3.00511 8.35061C3.02027 8.35244 3.03524 8.35536 3.05004 8.35536C3.95509 8.35573 4.85997 8.35609 5.76503 8.35426C5.80447 8.35426 5.8483 8.33801 5.8819 8.31646C6.51778 7.90849 7.1953 7.58526 7.90715 7.33361C8.42049 7.15245 8.9446 7.0111 9.47913 6.90756C9.99667 6.80748 10.517 6.73699 11.0427 6.7023C12.3245 6.60368 13.349 6.73937 14.0305 6.83488ZM12.8959 12.8122C12.8959 14.7996 14.5084 16.4233 16.4888 16.4156C18.4766 16.4085 20.0818 14.8305 20.0803 12.8211C20.0789 10.7504 18.3991 9.19376 16.4117 9.23412C14.4496 9.27485 12.9138 10.8563 12.8959 12.8122ZM7.50666 9.22042C5.57346 9.20362 3.88789 10.8171 3.92168 12.8723C3.95309 14.7888 5.53274 16.4136 7.54684 16.3962C9.5162 16.3794 11.0991 14.7713 11.1028 12.8239C11.1059 10.8231 9.5036 9.22042 7.50666 9.22042ZM7.6849 8.28286C8.77696 8.34952 9.73626 8.73009 10.5467 9.46714C11.3555 10.2027 11.8294 11.1204 12.0016 12.1995C12.1788 11.1332 12.6403 10.2241 13.4339 9.49581C14.2289 8.7668 15.1754 8.38421 16.2495 8.30331C14.9749 7.73665 13.6308 7.49596 12.2473 7.46929C10.6749 7.43843 9.14548 7.67017 7.6849 8.28286Z" fill="white"/>
<path d="M16.4815 10.5433C17.7114 10.5413 18.7076 11.5322 18.7076 12.7608C18.7076 13.9942 17.7284 14.9477 16.5732 14.9917C15.283 15.0412 14.2506 14.0132 14.251 12.7663C14.2521 11.5051 15.2917 10.5225 16.4815 10.5433ZM17.9322 12.7663C17.9317 11.9646 17.2835 11.313 16.4873 11.313C15.682 11.313 15.0264 11.9611 15.0231 12.7605C15.0202 13.5563 15.6791 14.2185 16.4769 14.2207C17.2761 14.2238 17.9326 13.5665 17.9322 12.7663Z" fill="white"/>
<path d="M7.4592 10.5433C8.68841 10.542 9.68606 11.5347 9.68295 12.7632C9.67948 14.0067 8.69937 14.9393 7.56439 14.991C6.26908 15.0502 5.22395 14.0176 5.22632 12.764C5.22888 11.4938 6.27565 10.5221 7.4592 10.5433ZM8.90828 12.7614C8.90591 11.9548 8.25359 11.3118 7.4393 11.3132C6.65385 11.3147 5.9957 11.9776 5.99752 12.766C5.99953 13.5635 6.65696 14.2192 7.45701 14.2214C8.25213 14.2233 8.91029 13.5611 8.90828 12.7614Z" fill="white"/>
<path d="M16.4825 12.0313C16.8901 12.0309 17.2243 12.3653 17.2204 12.7705C17.2164 13.1766 16.8879 13.5057 16.487 13.5059C16.0743 13.5059 15.7425 13.1797 15.7434 12.7756C15.7441 12.3563 16.0665 12.0316 16.4825 12.0313Z" fill="white"/>
<path d="M7.45554 12.0234C7.86935 12.0231 8.2019 12.3536 8.20354 12.7661C8.20519 13.1752 7.86953 13.511 7.45773 13.512C7.03606 13.5129 6.71082 13.1871 6.71118 12.7632C6.71118 12.347 7.0357 12.024 7.45554 12.0234Z" fill="white"/>
</g>
<defs>
<clipPath id="clip0"><rect width="18" height="18" fill="white" transform="translate(3 3)"/></clipPath>
</defs>
</svg>
