<svg width="24" height="24" viewBox="0 0 24 24" fill="none" xmlns="http://www.w3.org/2000/svg">
<rect width="24" height="24" fill="#BDBDBD"/>
<g clip-path="url(#clip0)">
<path d="M11.8288 16.526H12.7849C12.7849 16.526 13.0739 16.494 13.2209 16.335C13.3569 16.1889 13.3519 15.9149 13.3519 15.9149C13.3519 15.9149 13.3329 14.6318 13.929 14.4428C14.516 14.2568 15.2701 15.6829 16.0691 16.2319C16.6732 16.647 17.1322 16.556 17.1322 16.556L19.2694 16.526C19.2694 16.526 20.3874 16.457 19.8574 15.5779C19.8144 15.5059 19.5484 14.9279 18.2683 13.7398C16.9282 12.4957 17.1082 12.6977 18.7223 10.5465C19.7054 9.23643 20.0984 8.43637 19.9754 8.09434C19.8584 7.76832 19.1353 7.85433 19.1353 7.85433L16.7312 7.86833C16.7312 7.86833 16.5532 7.84433 16.4201 7.92333C16.2911 8.00134 16.2081 8.18135 16.2081 8.18135C16.2081 8.18135 15.8271 9.19543 15.3191 10.0575C14.248 11.8766 13.819 11.9726 13.6439 11.8596C13.2369 11.5966 13.3389 10.8015 13.3389 10.2375C13.3389 8.47437 13.6059 7.73932 12.8179 7.5493C12.5559 7.4863 12.3638 7.4443 11.6948 7.4373C10.8367 7.4283 10.1097 7.4403 9.69865 7.64131C9.42463 7.77532 9.21361 8.07434 9.34262 8.09134C9.50163 8.11235 9.86166 8.18835 10.0527 8.44837C10.2997 8.7834 10.2907 9.53745 10.2907 9.53745C10.2907 9.53745 10.4327 11.6126 9.95967 11.8706C9.63464 12.0476 9.18961 11.6866 8.23454 10.0355C7.7455 9.19043 7.37547 8.25536 7.37547 8.25536C7.37547 8.25536 7.30447 8.08134 7.17746 7.98834C7.02345 7.87533 6.80743 7.83933 6.80743 7.83933L4.52126 7.85333C4.52126 7.85333 4.17824 7.86333 4.05223 8.01234C3.94022 8.14535 4.04323 8.41937 4.04323 8.41937C4.04323 8.41937 5.83336 12.6067 7.85951 14.7178C9.71865 16.653 11.8288 16.526 11.8288 16.526Z" fill="white"/>
</g>
<defs>
<clipPath id="clip0">
<rect width="16" height="16" fill="white" transform="translate(4 4)"/>
</clipPath>
</defs>
</svg>
