<svg width="24" height="24" viewBox="0 0 24 24" fill="none" xmlns="http://www.w3.org/2000/svg">
<rect width="24" height="24" fill="#BDBDBD"/>
<g clip-path="url(#clip0)">
<path d="M14.0305 6.83424C14.5329 6.90527 15.0249 7.03146 15.511 7.18085C16.3597 7.44217 17.1604 7.80522 17.9136 8.27619C17.966 8.3087 18.0359 8.32934 18.0976 8.32934C18.9822 8.33299 19.8665 8.33171 20.7504 8.33244C20.8216 8.33244 20.8924 8.33993 20.9635 8.34395C20.9635 8.36129 20.966 8.3686 20.9631 8.37262C20.9218 8.43617 20.88 8.49881 20.8386 8.56217C20.5385 9.02237 20.2821 9.50376 20.1307 10.0359C20.1143 10.0931 20.1108 10.1409 20.1495 10.197C20.937 11.3278 21.1883 12.5692 20.8592 13.9074C20.5707 15.0811 19.8979 15.9962 18.8756 16.6441C18.1449 17.1075 17.3378 17.3281 16.4754 17.3328C16.1131 17.335 15.7526 17.2862 15.3987 17.1946C14.5364 16.9709 13.7971 16.541 13.1879 15.8899C13.1076 15.8045 13.032 15.7152 12.9463 15.6186C12.6242 16.0987 12.3072 16.5709 11.9825 17.0556C11.659 16.5724 11.3464 16.1047 11.0345 15.6388C11.0129 15.6502 11.0067 15.6514 11.0025 15.6555C10.9954 15.6613 10.9894 15.6684 10.9837 15.6752C10.2469 16.5454 9.31989 17.0788 8.19057 17.2572C7.56236 17.3567 6.94018 17.3209 6.33005 17.1527C5.46535 16.9152 4.73049 16.459 4.1368 15.7858C3.55662 15.1277 3.19577 14.3636 3.06026 13.4949C2.90522 12.6841 3.09405 11.9023 3.14116 11.7125C3.27776 11.161 3.5159 10.6546 3.84278 10.1889C3.86579 10.1559 3.87383 10.0974 3.86287 10.058C3.72956 9.56913 3.49983 9.12446 3.23083 8.69859C3.16253 8.5903 3.08072 8.49004 3.00511 8.38613C3.00511 8.37426 3.00511 8.36202 3.00511 8.34997C3.02027 8.3518 3.03524 8.35472 3.05004 8.35472C3.95509 8.35508 4.85997 8.35545 5.76503 8.35362C5.80447 8.35362 5.8483 8.33737 5.8819 8.31582C6.51778 7.90785 7.1953 7.58462 7.90715 7.33297C8.42049 7.15181 8.9446 7.01046 9.47913 6.90692C9.99667 6.80684 10.517 6.73635 11.0427 6.70165C12.3245 6.60304 13.349 6.73873 14.0305 6.83424ZM12.8959 12.8115C12.8959 14.799 14.5084 16.4226 16.4888 16.415C18.4766 16.4078 20.0818 14.8298 20.0803 12.8205C20.0789 10.7498 18.3991 9.19312 16.4117 9.23348C14.4496 9.2742 12.9138 10.8557 12.8959 12.8115ZM7.50666 9.21978C5.57346 9.20298 3.88789 10.8164 3.92168 12.8716C3.95309 14.7882 5.53274 16.413 7.54684 16.3956C9.5162 16.3788 11.0991 14.7707 11.1028 12.8232C11.1059 10.8224 9.5036 9.21978 7.50666 9.21978ZM7.6849 8.28222C8.77696 8.34888 9.73626 8.72945 10.5467 9.4665C11.3555 10.2021 11.8294 11.1198 12.0016 12.1988C12.1788 11.1325 12.6403 10.2235 13.4339 9.49517C14.2289 8.76616 15.1754 8.38357 16.2495 8.30267C14.9749 7.73601 13.6308 7.49532 12.2473 7.46865C10.6749 7.43779 9.14548 7.66953 7.6849 8.28222Z" fill="white"/>
<path d="M16.4815 10.5438C17.7114 10.5418 18.7076 11.5327 18.7076 12.7613C18.7076 13.9947 17.7284 14.9482 16.5732 14.9922C15.283 15.0417 14.2506 14.0137 14.251 12.7668C14.2521 11.5056 15.2917 10.523 16.4815 10.5438ZM17.9322 12.7668C17.9317 11.9651 17.2835 11.3135 16.4873 11.3135C15.682 11.3135 15.0264 11.9616 15.0231 12.761C15.0202 13.5568 15.6791 14.219 16.4769 14.2212C17.2761 14.2243 17.9326 13.567 17.9322 12.7668Z" fill="white"/>
<path d="M7.4592 10.5437C8.68841 10.5424 9.68606 11.5351 9.68295 12.7636C9.67948 14.0071 8.69937 14.9397 7.56439 14.9914C6.26908 15.0506 5.22395 14.018 5.22632 12.7643C5.22888 11.4942 6.27565 10.5225 7.4592 10.5437ZM8.90828 12.7618C8.90591 11.9552 8.25359 11.3122 7.4393 11.3136C6.65385 11.3151 5.9957 11.978 5.99752 12.7664C5.99953 13.5639 6.65696 14.2196 7.45701 14.2218C8.25213 14.2237 8.91029 13.5615 8.90828 12.7618Z" fill="white"/>
<path d="M16.4825 12.0288C16.8901 12.0285 17.2243 12.3628 17.2204 12.7681C17.2164 13.1742 16.8879 13.5033 16.487 13.5035C16.0743 13.5035 15.7425 13.1773 15.7434 12.7732C15.7441 12.3539 16.0665 12.0292 16.4825 12.0288Z" fill="white"/>
<path d="M7.45554 12.0224C7.86935 12.022 8.2019 12.3525 8.20354 12.7651C8.20519 13.1741 7.86953 13.51 7.45773 13.5109C7.03606 13.5118 6.71082 13.186 6.71118 12.7622C6.71118 12.346 7.0357 12.0229 7.45554 12.0224Z" fill="white"/>
</g>
<defs>
<clipPath id="clip0">
<rect width="18" height="18" fill="white" transform="translate(3 3)"/>
</clipPath>
</defs>
</svg>
